<svg xmlns="http://www.w3.org/2000/svg" width="512" height="512" viewBox="0 0 512 512" role="img" aria-label="DiOro 999.9 mark">
<title>DiOro 999.9</title>
<rect width="512" height="512" rx="96" fill="#0B0B0D"/>
<path fill="#C9A15A" d="M73.3 261.9Q63.6 261.9 56.2 257.2Q48.9 252.6 44.9 244.4Q41 236.2 41 225.9Q41 214.9 46.5 206.5Q52 198.1 61.4 193.5Q70.8 188.8 82.8 188.8Q95.9 188.8 105.2 194.8Q114.5 200.8 119.5 212.1Q124.4 223.4 124.4 238.9Q124.4 253.4 119.8 268Q115.1 282.6 106.1 294.7Q97.1 306.8 84.1 314.5Q71 322.1 54.2 323.2Q53.4 323.2 53.2 322.1Q53 321.1 53.6 320.9Q65.4 317.4 74.3 309.5Q83.2 301.6 89.1 290.8Q95 279.9 97.9 267Q100.8 254 100.8 240.4Q100.8 230 99.3 221.4Q97.7 212.8 94.9 206.5Q92.1 200.2 88 196.8Q83.9 193.4 78.9 193.4Q70.8 193.4 67.7 201.3Q64.6 209.3 64.6 222.6Q64.6 238.5 68.7 246.6Q72.9 254.7 81.8 254.7Q83.9 254.7 86.8 254.1Q89.7 253.6 92.1 252.2Q93 251.8 93.6 252.7Q94.2 253.6 93.8 254.2Q86.1 261.9 73.3 261.9ZM174.5 261.9Q164.8 261.9 157.5 257.2Q150.1 252.6 146.2 244.4Q142.2 236.2 142.2 225.9Q142.2 214.9 147.7 206.5Q153.2 198.1 162.6 193.5Q172 188.8 184.1 188.8Q197.1 188.8 206.4 194.8Q215.7 200.8 220.7 212.1Q225.7 223.4 225.7 238.9Q225.7 253.4 221 268Q216.4 282.6 207.3 294.7Q198.3 306.8 185.3 314.5Q172.3 322.1 155.5 323.2Q154.7 323.2 154.5 322.1Q154.2 321.1 154.9 320.9Q166.7 317.4 175.6 309.5Q184.5 301.6 190.4 290.8Q196.3 279.9 199.2 267Q202.1 254 202.1 240.4Q202.1 230 200.5 221.4Q199 212.8 196.2 206.5Q193.4 200.2 189.2 196.8Q185.1 193.4 180.1 193.4Q172 193.4 168.9 201.3Q165.8 209.3 165.8 222.6Q165.8 238.5 170 246.6Q174.1 254.7 183 254.7Q185.1 254.7 188 254.1Q190.9 253.6 193.4 252.2Q194.2 251.8 194.8 252.7Q195.4 253.6 195 254.2Q187.4 261.9 174.5 261.9ZM275.8 261.9Q266 261.9 258.7 257.2Q251.3 252.6 247.4 244.4Q243.5 236.2 243.5 225.9Q243.5 214.9 249 206.5Q254.4 198.1 263.9 193.5Q273.3 188.8 285.3 188.8Q298.3 188.8 307.7 194.8Q317 200.8 321.9 212.1Q326.9 223.4 326.9 238.9Q326.9 253.4 322.2 268Q317.6 282.6 308.6 294.7Q299.6 306.8 286.5 314.5Q273.5 322.1 256.7 323.2Q255.9 323.2 255.7 322.1Q255.5 321.1 256.1 320.9Q267.9 317.4 276.8 309.5Q285.7 301.6 291.6 290.8Q297.5 279.9 300.4 267Q303.3 254 303.3 240.4Q303.3 230 301.8 221.4Q300.2 212.8 297.4 206.5Q294.6 200.2 290.5 196.8Q286.3 193.4 281.4 193.4Q273.3 193.4 270.2 201.3Q267.1 209.3 267.1 222.6Q267.1 238.5 271.2 246.6Q275.4 254.7 284.3 254.7Q286.3 254.7 289.2 254.1Q292.1 253.6 294.6 252.2Q295.4 251.8 296.1 252.7Q296.7 253.6 296.3 254.2Q288.6 261.9 275.8 261.9ZM358.8 322.8Q353 322.8 349.6 319.4Q346.2 316 346.2 310.2Q346.2 304.8 349.6 301.4Q353 298.1 358.7 298.1Q364.8 298.1 367.9 301.4Q371 304.8 371 310.2Q371 316 367.9 319.4Q364.7 322.8 358.8 322.8ZM419.9 261.9Q410.1 261.9 402.8 257.2Q395.4 252.6 391.5 244.4Q387.6 236.2 387.6 225.9Q387.6 214.9 393.1 206.5Q398.5 198.1 408 193.5Q417.4 188.8 429.4 188.8Q442.4 188.8 451.7 194.8Q461.1 200.8 466 212.1Q471 223.4 471 238.9Q471 253.4 466.3 268Q461.7 282.6 452.7 294.7Q443.7 306.8 430.6 314.5Q417.6 322.1 400.8 323.2Q400 323.2 399.8 322.1Q399.6 321.1 400.2 320.9Q412 317.4 420.9 309.5Q429.8 301.6 435.7 290.8Q441.6 279.9 444.5 267Q447.4 254 447.4 240.4Q447.4 230 445.8 221.4Q444.3 212.8 441.5 206.5Q438.7 200.2 434.6 196.8Q430.4 193.4 425.5 193.4Q417.4 193.4 414.3 201.3Q411.2 209.3 411.2 222.6Q411.2 238.5 415.3 246.6Q419.4 254.7 428.4 254.7Q430.4 254.7 433.3 254.1Q436.2 253.6 438.7 252.2Q439.5 251.8 440.2 252.7Q440.8 253.6 440.4 254.2Q432.7 261.9 419.9 261.9Z"/>
</svg>
