<svg xmlns="http://www.w3.org/2000/svg" width="1200" height="1200" viewBox="0 0 1200 1200" role="img" aria-label="Dress watch, placeholder illustration">
<title>Dress watch (illustration)</title>
<defs>
<radialGradient id="v" cx=".5" cy=".5" r=".72"><stop offset=".55" stop-color="#F4F0E8" stop-opacity="0"/><stop offset="1" stop-color="#F4F0E8"/></radialGradient>
<filter id="s" x="-40%" y="-100%" width="180%" height="300%"><feGaussianBlur stdDeviation="24"/></filter>
<filter id="h" x="-50%" y="-50%" width="200%" height="200%"><feGaussianBlur stdDeviation="9"/></filter>
<linearGradient id="m" x1="0" y1="0" x2="1" y2="1"><stop offset="0" stop-color="#E3C98A"/><stop offset=".42" stop-color="#C9A15A"/><stop offset=".74" stop-color="#9A7A38"/><stop offset="1" stop-color="#C9A15A"/></linearGradient>
<linearGradient id="r" x1="0" y1="0" x2="1" y2="1"><stop offset="0" stop-color="#9A7A38"/><stop offset=".4" stop-color="#C9A15A"/><stop offset=".78" stop-color="#E3C98A"/><stop offset="1" stop-color="#C9A15A"/></linearGradient>
<radialGradient id="b" cx=".35" cy=".32" r=".8"><stop offset="0" stop-color="#E3C98A"/><stop offset=".5" stop-color="#C9A15A"/><stop offset="1" stop-color="#9A7A38"/></radialGradient>
<linearGradient id="st" x1="0" y1="0" x2="1" y2="0"><stop offset="0" stop-color="#15151A"/><stop offset=".5" stop-color="#0B0B0D"/><stop offset="1" stop-color="#15151A"/></linearGradient>
<linearGradient id="sl" x1="0" y1="0" x2="1" y2="1"><stop offset="0" stop-color="#F2F2F0"/><stop offset=".45" stop-color="#C9C9C4"/><stop offset=".8" stop-color="#8F8F8A"/><stop offset="1" stop-color="#C9C9C4"/></linearGradient>
<radialGradient id="dl" cx=".4" cy=".35" r=".8"><stop offset="0" stop-color="#1E1E24"/><stop offset="1" stop-color="#0B0B0D"/></radialGradient>
<radialGradient id="wh" cx=".38" cy=".3" r=".85"><stop offset="0" stop-color="#FFFFFF"/><stop offset=".6" stop-color="#EDECE8"/><stop offset="1" stop-color="#D6D4CE"/></radialGradient>
<linearGradient id="gem" x1="0" y1="0" x2="1" y2="1"><stop offset="0" stop-color="#FFFFFF"/><stop offset=".45" stop-color="#DCEAF2"/><stop offset="1" stop-color="#A9C3D2"/></linearGradient>
</defs>
<rect width="1200" height="1200" fill="#FDFCF8"/><rect width="1200" height="1200" fill="url(#v)"/><rect x="40" y="40" width="1120" height="1120" fill="none" stroke="#E8D5A3" stroke-width="2"/>
<ellipse cx="600" cy="912" rx="320" ry="44" fill="#0B0B0D" opacity=".18" filter="url(#s)"/><rect x="472" y="112" width="256" height="256" rx="36" fill="url(#st)"/><path d="M494 132V348M706 132V348" stroke="#9A7A38" stroke-width="2" stroke-dasharray="10 8" opacity=".7"/><rect x="472" y="832" width="256" height="256" rx="36" fill="url(#st)"/><path d="M494 852V1068M706 852V1068" stroke="#9A7A38" stroke-width="2" stroke-dasharray="10 8" opacity=".7"/><rect x="886" y="578" width="46" height="44" rx="8" fill="url(#sl)"/><path d="M900 586V614M912 586V614M924 586V614" stroke="#8F8F8A" stroke-width="2"/><circle cx="600" cy="600" r="268" fill="url(#sl)"/><circle cx="600" cy="600" r="272" fill="none" stroke="#8F8F8A" stroke-width="5"/><circle cx="600" cy="600" r="258" fill="url(#wh)" stroke="#15151A" stroke-width="6"/><g transform="translate(600 600)"><rect x="-5" y="-224" width="10" height="46" rx="2" transform="rotate(0)" fill="#9A7A38"/><rect x="-5" y="-224" width="10" height="32" rx="2" transform="rotate(30)" fill="#9A7A38"/><rect x="-5" y="-224" width="10" height="32" rx="2" transform="rotate(60)" fill="#9A7A38"/><rect x="-5" y="-224" width="10" height="46" rx="2" transform="rotate(90)" fill="#9A7A38"/><rect x="-5" y="-224" width="10" height="32" rx="2" transform="rotate(120)" fill="#9A7A38"/><rect x="-5" y="-224" width="10" height="32" rx="2" transform="rotate(150)" fill="#9A7A38"/><rect x="-5" y="-224" width="10" height="46" rx="2" transform="rotate(180)" fill="#9A7A38"/><rect x="-5" y="-224" width="10" height="32" rx="2" transform="rotate(210)" fill="#9A7A38"/><rect x="-5" y="-224" width="10" height="32" rx="2" transform="rotate(240)" fill="#9A7A38"/><rect x="-5" y="-224" width="10" height="46" rx="2" transform="rotate(270)" fill="#9A7A38"/><rect x="-5" y="-224" width="10" height="32" rx="2" transform="rotate(300)" fill="#9A7A38"/><rect x="-5" y="-224" width="10" height="32" rx="2" transform="rotate(330)" fill="#9A7A38"/></g><circle cx="600" cy="748" r="56" fill="#EDECE8" stroke="#8F8F8A" stroke-width="3"/><circle cx="600" cy="748" r="4" fill="#C9A15A"/><path d="M600 748L630 723" stroke="#C9A15A" stroke-width="4" stroke-linecap="round"/><g transform="translate(600 600)"><polygon points="0,-158 13,-22 0,22 -13,-22" transform="rotate(-60)" fill="url(#m)"/><polygon points="0,-226 10,-22 0,22 -10,-22" transform="rotate(60)" fill="url(#m)"/><path d="M0 40V-222" stroke="#E3C98A" stroke-width="3" transform="rotate(210)" stroke-linecap="round"/><circle r="13" fill="url(#b)"/></g>
<ellipse cx="470" cy="430" rx="140" ry="48" transform="rotate(-38 470 430)" fill="#FDFCF8" opacity=".07"/><ellipse cx="430" cy="372" rx="38" ry="13" transform="rotate(-38 430 372)" fill="#FDFCF8" opacity=".33" filter="url(#h)"/>
</svg>
