<svg xmlns="http://www.w3.org/2000/svg" width="512" height="512" viewBox="0 0 512 512" role="img" aria-label="DiOro 999.9 mark">
<title>DiOro 999.9</title>
<rect width="512" height="512" rx="96" fill="#0B0B0D"/>
<rect x="28" y="28" width="456" height="456" rx="72" fill="none" stroke="#C9A15A" stroke-opacity=".5" stroke-width="1.5"/>
<path fill="#C9A15A" d="M104.9 260.6Q96.6 260.6 90.5 256.7Q84.4 252.8 81.2 246Q78 239.2 78 231Q78 221.8 82.5 214.8Q87 207.9 94.7 204Q102.4 200.1 112.3 200.1Q123.3 200.1 130.8 205.2Q138.4 210.3 142.3 219.7Q146.3 229 146.3 241.6Q146.3 253.8 142.5 265.9Q138.7 278.1 131.3 288.2Q123.9 298.3 113.3 304.6Q102.6 311 89 311.9Q88.3 311.9 88.1 311Q87.9 310.1 88.5 310Q98.7 307.3 106.5 300.8Q114.2 294.3 119.3 285.2Q124.4 276.1 126.9 265.3Q129.4 254.5 129.4 243.4Q129.4 235 128.1 227.8Q126.7 220.6 124.2 215.2Q121.6 209.8 117.6 206.7Q113.7 203.7 108.6 203.7Q101 203.7 97.9 210.2Q94.8 216.7 94.8 227.5Q94.8 240.9 99.1 248Q103.3 255.1 111.4 255.1Q113.6 255.1 116.2 254.4Q118.8 253.7 121.5 251.7Q122.1 251.4 122.7 252.1Q123.3 252.8 123 253.3Q116.2 260.6 104.9 260.6ZM189.1 260.6Q180.8 260.6 174.7 256.7Q168.6 252.8 165.4 246Q162.2 239.2 162.2 231Q162.2 221.8 166.7 214.8Q171.2 207.9 178.9 204Q186.6 200.1 196.5 200.1Q207.5 200.1 215 205.2Q222.6 210.3 226.5 219.7Q230.5 229 230.5 241.6Q230.5 253.8 226.7 265.9Q222.9 278.1 215.5 288.2Q208.1 298.3 197.5 304.6Q186.8 311 173.2 311.9Q172.5 311.9 172.3 311Q172.1 310.1 172.7 310Q182.9 307.3 190.7 300.8Q198.4 294.3 203.5 285.2Q208.6 276.1 211.1 265.3Q213.6 254.5 213.6 243.4Q213.6 235 212.3 227.8Q210.9 220.6 208.4 215.2Q205.8 209.8 201.8 206.7Q197.9 203.7 192.8 203.7Q185.2 203.7 182.1 210.2Q179 216.7 179 227.5Q179 240.9 183.3 248Q187.5 255.1 195.6 255.1Q197.8 255.1 200.4 254.4Q203 253.7 205.7 251.7Q206.3 251.4 206.9 252.1Q207.5 252.8 207.2 253.3Q200.5 260.6 189.1 260.6ZM273.3 260.6Q265 260.6 258.9 256.7Q252.8 252.8 249.6 246Q246.4 239.2 246.4 231Q246.4 221.8 250.9 214.8Q255.4 207.9 263.1 204Q270.8 200.1 280.7 200.1Q291.7 200.1 299.2 205.2Q306.8 210.3 310.7 219.7Q314.7 229 314.7 241.6Q314.7 253.8 310.9 265.9Q307.1 278.1 299.7 288.2Q292.3 298.3 281.7 304.6Q271 311 257.4 311.9Q256.7 311.9 256.5 311Q256.3 310.1 256.9 310Q267.2 307.3 274.9 300.8Q282.6 294.3 287.7 285.2Q292.8 276.1 295.3 265.3Q297.8 254.5 297.8 243.4Q297.8 235 296.5 227.8Q295.2 220.6 292.6 215.2Q290 209.8 286 206.7Q282.1 203.7 277 203.7Q269.5 203.7 266.3 210.2Q263.2 216.7 263.2 227.5Q263.2 240.9 267.5 248Q271.7 255.1 279.8 255.1Q282 255.1 284.6 254.4Q287.3 253.7 289.9 251.7Q290.5 251.4 291.1 252.1Q291.8 252.8 291.4 253.3Q284.7 260.6 273.3 260.6ZM341.4 311.6Q337.1 311.6 334.5 309Q331.9 306.5 331.9 302.1Q331.9 298 334.5 295.6Q337.1 293.1 341.4 293.1Q345.9 293.1 348.3 295.6Q350.6 298 350.6 302.1Q350.6 306.5 348.3 309Q345.9 311.6 341.4 311.6ZM392.6 260.6Q384.3 260.6 378.2 256.7Q372.1 252.8 368.9 246Q365.7 239.2 365.7 231Q365.7 221.8 370.2 214.8Q374.7 207.9 382.4 204Q390.2 200.1 400 200.1Q411 200.1 418.6 205.2Q426.2 210.3 430.1 219.7Q434 229 434 241.6Q434 253.8 430.2 265.9Q426.4 278.1 419 288.2Q411.6 298.3 401 304.6Q390.4 311 376.7 311.9Q376.1 311.9 375.9 311Q375.7 310.1 376.2 310Q386.5 307.3 394.2 300.8Q401.9 294.3 407 285.2Q412.2 276.1 414.7 265.3Q417.2 254.5 417.2 243.4Q417.2 235 415.8 227.8Q414.5 220.6 411.9 215.2Q409.3 209.8 405.4 206.7Q401.4 203.7 396.4 203.7Q388.8 203.7 385.7 210.2Q382.6 216.7 382.6 227.5Q382.6 240.9 386.8 248Q391 255.1 399.1 255.1Q401.3 255.1 403.9 254.4Q406.6 253.7 409.3 251.7Q409.9 251.4 410.5 252.1Q411.1 252.8 410.7 253.3Q404 260.6 392.6 260.6Z"/>
</svg>
